<?xml version="1.0" encoding="UTF-8" standalone="no"?><svg width="28px" height="28px" viewBox="0 0 28 28" version="1.1" xmlns="http://www.w3.org/2000/svg" xmlns:xlink="http://www.w3.org/1999/xlink">        <title>0F5D1940-9317-4BC4-8C38-9F50A7D3FBF7</title>    <desc>Created with sketchtool.</desc>    <defs></defs>    <g id="Gamee-Platform-Web-Version" stroke="none" stroke-width="1" fill="none" fill-rule="evenodd">        <g id="Web-detail-hry---after-game---facebook-app" transform="translate(-232.000000, -421.000000)" fill="#FFFFFF">            <g id="Group-3" transform="translate(215.000000, 408.000000)">                <path d="M18.5454433,13 C17.6916779,13 17,13.6916753 17,14.5453326 L17,39.4546674 C17,40.3081148 17.6916779,41 18.5454433,41 L31.9556864,41 L31.9556864,30.1569687 L28.3067784,30.1569687 L28.3067784,25.9311712 L31.9556864,25.9311712 L31.9556864,22.8148029 C31.9556864,19.198221 34.1644816,17.2289448 37.3908083,17.2289448 C38.9361467,17.2289448 40.2643194,17.3440317 40.6515458,17.3954379 L40.6515458,21.1749459 L38.413795,21.175995 C36.6592642,21.175995 36.3195625,22.0097192 36.3195625,23.2331862 L36.3195625,25.9311712 L40.5040409,25.9311712 L39.9591334,30.1569687 L36.3195625,30.1569687 L36.3195625,41 L43.4546616,41 C44.3081122,41 45,40.3081148 45,39.4546674 L45,14.5453326 C45,13.6916753 44.3081122,13 43.4546616,13 L18.5454433,13 Z" id="share-icn-fb"></path>            </g>        </g>    </g></svg>