<?xml version="1.0" encoding="UTF-8" standalone="no"?><svg width="246px" height="246px" viewBox="0 0 246 246" version="1.1" xmlns="http://www.w3.org/2000/svg" xmlns:xlink="http://www.w3.org/1999/xlink">        <title>B3A5DE59-B48D-41AF-8CA4-518579078111</title>    <desc>Created with sketchtool.</desc>    <defs></defs>    <g id="Web-detail-hry" stroke="none" stroke-width="1" fill="none" fill-rule="evenodd">        <g id="Web-detail-hry---landscape" transform="translate(-544.000000, -207.000000)">            <g id="rotate-phone-icon" transform="translate(544.000000, 207.000000)">                <path d="M240.157426,165.060443 C240.157426,173.992082 232.877594,181.258113 223.930265,181.258113 L216.476244,181.258113 L216.476244,69.1007457 L223.930265,69.1007457 C232.877594,69.1007457 240.157426,76.3675123 240.157426,85.2987832 L240.157426,165.060443 Z M223.930265,63.5867079 L213.714268,63.5867079 L184.544118,63.5867079 L184.544118,69.1007457 L210.952292,69.1007457 L210.952292,181.258113 L184.544118,181.258113 L184.544118,186.772151 L213.714268,186.772151 L223.930265,186.772151 C235.923869,186.772151 245.681378,177.032154 245.681378,165.060443 L245.681378,85.2987832 C245.681378,73.3267043 235.923869,63.5867079 223.930265,63.5867079 L223.930265,63.5867079 Z" id="Fill-1" fill="#DCE5E6"></path>                <path d="M5.5239521,165.060443 L5.5239521,85.2987832 C5.5239521,76.3675123 12.8034162,69.1007457 21.7507455,69.1007457 L29.2051347,69.1007457 L29.2051347,181.258113 L21.7507455,181.258113 C12.8034162,181.258113 5.5239521,173.992082 5.5239521,165.060443 L5.5239521,165.060443 Z M61.1372605,181.258113 L34.7290868,181.258113 L34.7290868,69.1007457 L61.1372605,69.1007457 L61.1372605,63.5867079 L31.9671108,63.5867079 L21.7507455,63.5867079 C9.75750898,63.5867079 0,73.3267043 0,85.2987832 L0,165.060443 C0,177.032154 9.75750898,186.772151 21.7507455,186.772151 L31.9671108,186.772151 L61.1372605,186.772151 L61.1372605,181.258113 Z" id="Fill-3" fill="#DCE5E6"></path>                <path d="M82.8880428,5.88171387 L162.793115,5.88171387 C171.740444,5.88171387 179.020276,13.1484805 179.020276,22.0797514 L179.020276,29.520394 L66.6612494,29.520394 L66.6612494,22.0797514 C66.6612494,13.1484805 73.9403452,5.88171387 82.8880428,5.88171387 L82.8880428,5.88171387 Z M66.6612494,210.941428 L179.020276,210.941428 L179.020276,35.0344318 L66.6612494,35.0344318 L66.6612494,210.941428 Z M162.793115,240.094146 L82.8880428,240.094146 C73.9403452,240.094146 66.6612494,232.827747 66.6612494,223.896109 L66.6612494,216.455466 L179.020276,216.455466 L179.020276,223.896109 C179.020276,232.827747 171.740444,240.094146 162.793115,240.094146 L162.793115,240.094146 Z M184.544228,181.25826 L184.544228,69.1008927 L184.544228,63.5868549 L184.544228,29.520394 L184.544228,22.0797514 C184.544228,10.1076725 174.786719,0.367676042 162.793115,0.367676042 L82.8880428,0.367676042 C70.8948063,0.367676042 61.1372973,10.1076725 61.1372973,22.0797514 L61.1372973,29.520394 L61.1372973,63.5868549 L61.1372973,69.1008927 L61.1372973,181.25826 L61.1372973,186.772298 L61.1372973,216.455466 L61.1372973,223.896109 C61.1372973,235.868188 70.8948063,245.608184 82.8880428,245.608184 L162.793115,245.608184 C174.786719,245.608184 184.544228,235.868188 184.544228,223.896109 L184.544228,216.455466 L184.544228,186.772298 L184.544228,181.25826 Z" id="Fill-5" fill="#B1C1C3"></path>                <path d="M87.3428156,121.226342 C87.3428156,140.764784 103.266896,156.660652 122.840837,156.660652 C142.41404,156.660652 158.338121,140.764784 158.338121,121.226342 C158.338121,119.703365 157.10186,118.469323 155.576145,118.469323 C154.050798,118.469323 152.814169,119.703365 152.814169,121.226342 C152.814169,137.724343 139.368133,151.146614 122.840837,151.146614 C106.313172,151.146614 92.8667677,137.724343 92.8667677,121.226342 C92.8667677,104.899644 106.036974,91.5946381 122.328582,91.3196714 L114.262875,100.494663 C113.25678,101.639377 113.370573,103.381078 114.516977,104.385368 C115.041753,104.844871 115.691001,105.070211 116.337672,105.070211 C117.105133,105.070211 117.868911,104.75297 118.415046,104.131722 L130.959573,89.8617598 C131.442735,89.312194 131.687262,88.5935311 131.639756,87.8634725 C131.591881,87.1337815 131.255657,86.4529816 130.705103,85.9706871 L116.409483,73.4486748 C115.262711,72.4447523 113.517878,72.5576063 112.511783,73.7030557 C111.505687,74.8474024 111.61948,76.5891031 112.766253,77.5937608 L122.137085,85.8015899 C102.886849,86.1772797 87.3428156,101.922799 87.3428156,121.226342" id="Fill-8" fill="#B1C1C3"></path>            </g>        </g>    </g></svg>