<?xml version="1.0" encoding="UTF-8"?><svg width="16px" height="16px" viewBox="0 0 16 16" version="1.1" xmlns="http://www.w3.org/2000/svg" xmlns:xlink="http://www.w3.org/1999/xlink">        <title>77D54E65-8046-4B1C-BF79-00764A153A67</title>    <desc>Created with sketchtool.</desc>    <defs></defs>    <g id="PLATFORM" stroke="none" stroke-width="1" fill="none" fill-rule="evenodd">        <g id="Desktop-–-After---Embed" transform="translate(-455.000000, -412.000000)" fill="#FFFFFF">            <g id="Group-6" transform="translate(413.000000, 260.000000)">                <g id="Group-2" transform="translate(30.000000, 145.000000)">                    <path d="M18,21.9975267 C18,21.4441956 17.557918,21 17.0024733,21 L26.9975267,21 C26.4441956,21 26,21.442082 26,21.9975267 L26,12.0024733 C26,12.5558044 26.442082,13 26.9975267,13 L17.0024733,13 C17.5558044,13 18,12.557918 18,12.0024733 L18,21.9975267 Z M17.0024733,11 L26.9975267,11 C27.5511774,11 28,11.455761 28,12.0024733 L28,21.9975267 C28,22.5511774 27.544239,23 26.9975267,23 L17.0024733,23 C16.4488226,23 16,22.544239 16,21.9975267 L16,12.0024733 C16,11.4488226 16.455761,11 17.0024733,11 Z M24,9.01428399 L24,8.00371292 C24,7.44476798 23.5511774,7 22.9975267,7 L13.0024733,7 C12.455761,7 12,7.44882258 12,8.00247329 L12,17.9975267 C12,18.544239 12.450955,19 13.0072362,19 L13.975109,19 L13.975109,17 L13.0072362,17 C13.557934,17 14,17.4420791 14,17.9975267 L14,8.00247329 C14,8.55791795 13.5558044,9 13.0024733,9 L22.9975267,9 C22.4490713,9 22,8.55179968 22,8.00371292 L22,9.01428399 L24,9.01428399 Z" id="icn-copy"></path>                </g>            </g>        </g>    </g></svg>