<?xml version="1.0" encoding="utf-8"?><!DOCTYPE svg PUBLIC "-//W3C//DTD SVG 1.1//EN" "http://www.w3.org/Graphics/SVG/1.1/DTD/svg11.dtd"><svg version="1.1" id="Layer_1" xmlns="http://www.w3.org/2000/svg" xmlns:xlink="http://www.w3.org/1999/xlink" x="0px" y="0px" width="18px" height="18px" viewBox="0 0 18 18" enable-background="new 0 0 18 18" xml:space="preserve"><title>B3444848-73C4-498F-A0C5-5A7D79BC7CD0</title><desc>Created with sketchtool.</desc><g id="PLATFORM"><g id="Desktop-_x2013_-After---Embed" transform="translate(-427.000000, -274.000000)"><g id="Group-6" transform="translate(413.000000, 260.000000)"><path id="icn-close" fill="#869A9B" d="M21.088,23l-6.697,6.697c-0.524,0.524-0.521,1.377,0.006,1.905c0.531,0.532,1.381,0.53,1.905,0.007L23,24.912l6.697,6.697c0.524,0.523,1.377,0.521,1.905-0.007c0.532-0.531,0.53-1.381,0.007-1.905L24.912,23l6.697-6.697c0.523-0.524,0.521-1.377-0.007-1.905c-0.531-0.532-1.381-0.531-1.905-0.006L23,21.088l-6.697-6.697c-0.524-0.524-1.377-0.521-1.905,0.006c-0.532,0.531-0.531,1.381-0.006,1.905L21.088,23z"/></g></g></g></svg>