<?xml version="1.0" encoding="utf-8"?>
<!-- Generator: Adobe Illustrator 16.0.0, SVG Export Plug-In . SVG Version: 6.00 Build 0)  -->
<!DOCTYPE svg PUBLIC "-//W3C//DTD SVG 1.1//EN" "http://www.w3.org/Graphics/SVG/1.1/DTD/svg11.dtd">
<svg version="1.1" id="Layer_1" xmlns="http://www.w3.org/2000/svg" xmlns:xlink="http://www.w3.org/1999/xlink" x="0px" y="0px"
	 width="201px" height="100px" viewBox="0 0 201 100" enable-background="new 0 0 201 100" xml:space="preserve">
<title>55E906E4-933E-49FE-8FDD-0F6E1312AAD2</title>
<g>
	<circle fill="#5AC546" cx="50" cy="50" r="50"/>
	<path fill="#FFFFFF" d="M60.793,29.7C49.82,24.001,36.2,27.902,29.956,38.717c-6.42,11.12-2.61,25.34,8.51,31.76
		c11.12,6.42,25.341,2.61,31.761-8.51c0.955-1.68,0.367-3.816-1.313-4.772c-1.665-0.946-3.78-0.379-4.749,1.272
		c-4.487,7.772-14.426,10.436-22.197,5.947c-7.773-4.487-10.436-14.425-5.948-22.197c4.31-7.466,13.65-10.218,21.269-6.446
		l-2.66,4.606c-1.104,1.915-0.226,3.198,1.959,2.878l12.854-1.885c2.185-0.32,3.285-2.244,2.459-4.297L67.086,25.11
		c-0.83-2.063-2.391-2.169-3.493-0.26L60.793,29.7L60.793,29.7z"/>
</g>
<g>
	<circle fill="#49A336" cx="151" cy="50" r="50"/>
	<path fill="#FFFFFF" d="M161.793,29.7c-10.973-5.699-24.593-1.798-30.837,9.017c-6.42,11.12-2.61,25.34,8.51,31.76
		s25.341,2.61,31.761-8.51c0.955-1.68,0.367-3.816-1.312-4.771c-1.665-0.946-3.78-0.379-4.749,1.271
		c-4.487,7.772-14.425,10.436-22.197,5.947c-7.772-4.487-10.436-14.425-5.948-22.197c4.311-7.466,13.65-10.218,21.27-6.446
		l-2.66,4.606c-1.104,1.915-0.227,3.198,1.959,2.878l12.854-1.885c2.186-0.32,3.285-2.244,2.459-4.297l-4.814-11.963
		c-0.83-2.063-2.391-2.169-3.493-0.26L161.793,29.7L161.793,29.7z"/>
</g>
</svg>
