<?xml version="1.0" encoding="utf-8"?><!DOCTYPE svg PUBLIC "-//W3C//DTD SVG 1.1//EN" "http://www.w3.org/Graphics/SVG/1.1/DTD/svg11.dtd"><svg version="1.1" id="Layer_1" xmlns="http://www.w3.org/2000/svg" xmlns:xlink="http://www.w3.org/1999/xlink" x="0px" y="0px" width="149px" height="39px" viewBox="0 0 149 39" enable-background="new 0 0 149 39" xml:space="preserve"><title>F0CDBA03-55B2-448B-BE91-B5E23ED3BF04</title><desc>Created with sketchtool.</desc><g id="PLATFORM"><g id="Desktop-_x2013_-After---Endscreen" transform="translate(-358.000000, -565.000000)"><g id="Group" transform="translate(183.000000, 170.000000)"><g id="Games-_x2013_-game-larger"><g id="Group-6"><g transform="translate(144.000000, 395.000000)"><g id="gamee-logotype" transform="translate(31.000000, 0.000000)"><path id="Fill-1" fill="#292E3D" d="M58.578,21.175c-0.277-0.333-0.415-0.785-0.415-1.354c0-0.57,0.138-1.021,0.415-1.355c0.276-0.334,0.671-0.501,1.185-0.501h4.919c0.682,0,1.203,0.177,1.563,0.53c0.36,0.354,0.541,0.869,0.541,1.546v5.582c0,0.51-0.072,0.938-0.215,1.281c-0.144,0.344-0.368,0.662-0.674,0.957c-0.188,0.177-0.464,0.371-0.83,0.582c-0.365,0.211-0.822,0.41-1.371,0.596c-0.548,0.188-1.195,0.344-1.941,0.472s-1.588,0.191-2.526,0.191c-1.689,0-3.191-0.228-4.504-0.685c-1.314-0.457-2.42-1.112-3.319-1.967c-0.899-0.854-1.583-1.893-2.052-3.114c-0.469-1.223-0.704-2.604-0.704-4.146c0-1.62,0.249-3.103,0.748-4.448c0.499-1.345,1.232-2.501,2.201-3.468c0.968-0.967,2.17-1.716,3.608-2.246c1.437-0.53,3.099-0.795,4.986-0.795c0.701,0,1.355,0.052,1.963,0.155s1.148,0.235,1.623,0.397s0.882,0.339,1.223,0.53s0.6,0.38,0.778,0.567c0.247,0.246,0.425,0.496,0.534,0.751c0.108,0.255,0.163,0.57,0.163,0.943c0,0.275-0.044,0.522-0.133,0.744c-0.089,0.221-0.208,0.41-0.355,0.567c-0.148,0.157-0.329,0.277-0.541,0.361s-0.442,0.125-0.689,0.125c-0.276,0-0.546-0.059-0.808-0.177c-0.262-0.118-0.573-0.25-0.934-0.398c-0.36-0.147-0.797-0.28-1.311-0.397s-1.151-0.177-1.912-0.177c-0.879,0-1.677,0.135-2.393,0.405s-1.331,0.673-1.845,1.208c-0.514,0.535-0.911,1.205-1.193,2.01s-0.422,1.748-0.422,2.828c0,1.09,0.136,2.047,0.408,2.871c0.271,0.825,0.664,1.516,1.178,2.07s1.139,0.975,1.875,1.259s1.573,0.427,2.512,0.427c0.346,0,0.649-0.018,0.911-0.051c0.262-0.035,0.481-0.076,0.66-0.126c0.197-0.049,0.365-0.103,0.503-0.161v-3.889h-2.223C59.25,21.676,58.854,21.509,58.578,21.175"/><path id="Fill-3" fill="#292E3D" d="M78.981,16.359c-0.128-0.403-0.241-0.781-0.341-1.134l-0.267-0.928c-0.099-0.314-0.178-0.609-0.237-0.884h-0.059l-0.223,0.884c-0.079,0.265-0.166,0.574-0.26,0.928s-0.199,0.731-0.318,1.134l-1.467,4.904h4.742L78.981,16.359z M73.699,28.281c-0.114,0.279-0.264,0.513-0.452,0.699c-0.178,0.177-0.4,0.314-0.667,0.412c-0.267,0.099-0.583,0.147-0.949,0.147c-0.316,0-0.632-0.046-0.948-0.14c-0.316-0.094-0.603-0.233-0.859-0.42s-0.464-0.412-0.622-0.678c-0.158-0.265-0.237-0.564-0.237-0.898c0-0.186,0.022-0.373,0.067-0.559c0.044-0.188,0.126-0.457,0.244-0.811l4.624-13.49c0.108-0.314,0.215-0.597,0.318-0.847c0.104-0.25,0.212-0.477,0.326-0.678c0.113-0.201,0.229-0.385,0.348-0.552c0.118-0.167,0.252-0.324,0.4-0.471c0.326-0.314,0.733-0.557,1.223-0.729s1.104-0.258,1.845-0.258c0.74,0,1.355,0.086,1.845,0.258s0.896,0.415,1.223,0.729c0.147,0.147,0.284,0.304,0.407,0.471s0.24,0.351,0.348,0.552c0.109,0.201,0.215,0.427,0.319,0.678c0.104,0.25,0.21,0.532,0.318,0.847l4.623,13.402c0.118,0.354,0.2,0.623,0.245,0.81c0.044,0.187,0.066,0.363,0.066,0.53c0,0.373-0.087,0.701-0.26,0.986s-0.395,0.521-0.666,0.707c-0.272,0.187-0.574,0.326-0.904,0.42c-0.331,0.094-0.654,0.14-0.971,0.14c-0.375,0-0.704-0.054-0.985-0.162c-0.282-0.108-0.521-0.265-0.719-0.472c-0.188-0.176-0.341-0.396-0.46-0.662c-0.117-0.266-0.231-0.574-0.34-0.928l-0.727-2.224h-6.994l-0.696,2.224C73.924,27.68,73.812,28.001,73.699,28.281L73.699,28.281z"/><path id="Fill-4" fill="#292E3D" d="M91.375,10.961c0.158-0.397,0.381-0.739,0.667-1.023c0.296-0.294,0.696-0.525,1.2-0.692c0.504-0.167,1.127-0.25,1.867-0.25c0.622,0,1.158,0.066,1.607,0.199s0.83,0.327,1.141,0.582c0.312,0.255,0.568,0.567,0.771,0.936c0.202,0.368,0.363,0.788,0.481,1.259l2.607,9.484c0.099,0.354,0.188,0.699,0.267,1.038c0.08,0.339,0.144,0.636,0.193,0.892c0.059,0.313,0.118,0.604,0.178,0.868h0.059l0.164-0.868c0.059-0.256,0.123-0.551,0.191-0.885c0.07-0.334,0.154-0.677,0.252-1.03l2.623-9.484c0.129-0.481,0.291-0.906,0.489-1.274c0.197-0.368,0.454-0.68,0.771-0.936c0.316-0.255,0.696-0.449,1.141-0.582c0.445-0.133,0.979-0.199,1.601-0.199c0.722,0,1.331,0.083,1.83,0.25c0.499,0.167,0.892,0.393,1.178,0.677c0.296,0.294,0.521,0.641,0.675,1.038c0.152,0.398,0.264,0.886,0.333,1.465l1.541,14.168c0.02,0.226,0.034,0.405,0.044,0.538c0.01,0.132,0.016,0.258,0.016,0.375c0,0.305-0.069,0.579-0.208,0.824c-0.138,0.246-0.328,0.459-0.57,0.641s-0.528,0.322-0.859,0.42c-0.331,0.099-0.688,0.147-1.074,0.147c-0.366,0-0.716-0.056-1.052-0.169s-0.607-0.273-0.815-0.479c-0.237-0.236-0.393-0.519-0.467-0.848c-0.074-0.328-0.126-0.67-0.155-1.023l-0.845-9.926c-0.03-0.393-0.05-0.771-0.06-1.134s-0.015-0.687-0.015-0.972c0-0.334,0.01-0.648,0.03-0.943h-0.061l-3.348,12.268c-0.148,0.551-0.316,1.033-0.504,1.451c-0.188,0.417-0.405,0.744-0.652,0.979c-0.276,0.274-0.609,0.469-1,0.581c-0.391,0.113-0.852,0.17-1.386,0.17c-0.543,0-1.01-0.057-1.399-0.17c-0.391-0.112-0.725-0.307-1.001-0.581c-0.247-0.235-0.464-0.562-0.651-0.979c-0.188-0.418-0.355-0.9-0.504-1.451l-3.364-12.297h-0.06v0.928c-0.01,0.285-0.021,0.609-0.037,0.972c-0.014,0.363-0.037,0.751-0.066,1.164l-0.74,9.94c-0.029,0.363-0.076,0.707-0.141,1.031s-0.225,0.613-0.482,0.869c-0.197,0.196-0.454,0.348-0.77,0.456c-0.316,0.108-0.652,0.162-1.008,0.162c-0.346,0-0.675-0.042-0.986-0.125c-0.311-0.083-0.585-0.208-0.822-0.376c-0.236-0.166-0.424-0.367-0.562-0.604c-0.139-0.235-0.207-0.506-0.207-0.811c0-0.137,0.007-0.274,0.021-0.412c0.016-0.137,0.032-0.324,0.053-0.559l1.555-14.228C91.108,11.848,91.217,11.359,91.375,10.961"/><path id="Fill-5" fill="#292E3D" d="M130.58,25.505c0.515,0,0.922,0.162,1.223,0.485c0.302,0.324,0.453,0.811,0.453,1.459c0,0.658-0.151,1.146-0.453,1.465c-0.301,0.319-0.708,0.479-1.223,0.479h-9.142c-0.731,0-1.3-0.201-1.704-0.604c-0.405-0.402-0.607-0.962-0.607-1.679V11.381c0-0.717,0.202-1.276,0.607-1.679c0.404-0.403,0.973-0.604,1.704-0.604h9.068c0.523,0,0.937,0.16,1.237,0.479c0.301,0.319,0.451,0.808,0.451,1.465c0,0.648-0.15,1.134-0.451,1.458c-0.301,0.324-0.714,0.486-1.237,0.486h-6.208v4.183h5.26c0.484,0,0.877,0.162,1.178,0.486s0.452,0.8,0.452,1.429c0,0.628-0.151,1.104-0.452,1.428c-0.301,0.324-0.693,0.486-1.178,0.486h-5.26v4.507H130.58z"/><path id="Fill-6" fill="#292E3D" d="M146.851,25.505c0.514,0,0.921,0.162,1.222,0.485c0.302,0.324,0.453,0.811,0.453,1.459c0,0.658-0.151,1.146-0.453,1.465c-0.301,0.319-0.708,0.479-1.222,0.479h-9.143c-0.731,0-1.3-0.201-1.704-0.604c-0.405-0.402-0.607-0.962-0.607-1.679V11.381c0-0.717,0.202-1.276,0.607-1.679c0.404-0.403,0.973-0.604,1.704-0.604h9.068c0.523,0,0.937,0.16,1.237,0.479c0.301,0.319,0.451,0.808,0.451,1.465c0,0.648-0.15,1.134-0.451,1.458c-0.301,0.324-0.714,0.486-1.237,0.486h-6.208v4.183h5.26c0.484,0,0.877,0.162,1.178,0.486s0.452,0.8,0.452,1.429c0,0.628-0.151,1.104-0.452,1.428c-0.301,0.324-0.693,0.486-1.178,0.486h-5.26v4.507H146.851z"/><path id="Fill-7" fill="#AFEE71" d="M33.549,0.649C31.606,0,30.34,0,25.827,0H13.33C8.818,0,7.551,0,5.609,0.649C3.312,1.483,1.493,3.292,0.653,5.575C0.012,7.472,0,8.72,0,13.016v12.888c0,4.296,0.012,5.544,0.653,7.44c0.839,2.283,2.659,4.092,4.956,4.926c1.942,0.649,3.209,0.649,7.721,0.649h12.497c4.513,0,5.779,0,7.722-0.649c2.296-0.834,4.116-2.643,4.956-4.926c0.653-1.93,0.653-3.189,0.653-7.674V13.249c0-4.485,0-5.744-0.653-7.674C37.665,3.292,35.845,1.483,33.549,0.649"/><path id="Fill-8" fill="#4BCE53" d="M26.727,38.919c-0.052-0.507-0.482-0.901-1.005-0.901s-0.953,0.395-1.005,0.901h1.111C26.143,38.919,26.441,38.919,26.727,38.919"/><path id="Fill-9" fill="#4BCE53" d="M33.418,28.56c-0.558,0-1.01,0.45-1.01,1.005s0.452,1.004,1.01,1.004s1.01-0.449,1.01-1.004S33.977,28.56,33.418,28.56"/><path id="Fill-10" fill="#4BCE53" d="M33.418,32.343c-0.558,0-1.01,0.45-1.01,1.005s0.452,1.004,1.01,1.004s1.01-0.449,1.01-1.004S33.977,32.343,33.418,32.343"/><path id="Fill-11" fill="#4BCE53" d="M38.837,6.745c-0.086-0.385-0.195-0.763-0.333-1.17c-0.145-0.393-0.319-0.771-0.519-1.134l-7.476,7.117L38.837,6.745z"/><path id="Fill-12" fill="#4BCE53" d="M30.853,38.018c-0.51,0-0.931,0.375-1,0.863c0.772-0.029,1.39-0.082,1.959-0.174C31.679,38.307,31.3,38.018,30.853,38.018"/><path id="Fill-13" fill="#4BCE53" d="M39.049,8.133l-7.403,5.167l7.5-2.939C39.134,9.462,39.107,8.751,39.049,8.133"/><path id="Fill-14" fill="#4BCE53" d="M32.177,0.278l-4.65,8.383l6.986-7.589c-0.311-0.16-0.632-0.302-0.964-0.422C33.07,0.489,32.632,0.369,32.177,0.278"/><path id="Fill-15" fill="#4BCE53" d="M25.748,7.571l5.032-7.48c-0.619-0.049-1.334-0.072-2.232-0.082L25.748,7.571z"/><path id="Fill-16" fill="#4BCE53" d="M28.287,36.126c-0.558,0-1.01,0.45-1.01,1.005s0.452,1.004,1.01,1.004s1.01-0.449,1.01-1.004S28.845,36.126,28.287,36.126"/><path id="Fill-17" fill="#4BCE53" d="M24.711,35.238c0,0.555,0.453,1.005,1.01,1.005c0.558,0,1.011-0.45,1.011-1.005s-0.453-1.004-1.011-1.004C25.164,34.234,24.711,34.684,24.711,35.238"/><path id="Fill-18" fill="#4BCE53" d="M28.287,32.343c-0.558,0-1.01,0.45-1.01,1.005s0.452,1.004,1.01,1.004s1.01-0.449,1.01-1.004S28.845,32.343,28.287,32.343"/><path id="Fill-19" fill="#4BCE53" d="M34.429,37.131c0-0.555-0.452-1.005-1.01-1.005s-1.01,0.45-1.01,1.005s0.452,1.004,1.01,1.004S34.429,37.686,34.429,37.131"/><path id="Fill-20" fill="#4BCE53" d="M37.54,29.564c0,0.555,0.452,1.004,1.01,1.004c0.194,0,0.375-0.055,0.529-0.148c0.034-0.483,0.053-1.027,0.064-1.668c-0.167-0.121-0.372-0.192-0.593-0.192C37.992,28.56,37.54,29.01,37.54,29.564"/><path id="Fill-21" fill="#4BCE53" d="M38.55,20.993c-0.558,0-1.01,0.45-1.01,1.005s0.452,1.004,1.01,1.004c0.228,0,0.438-0.075,0.607-0.202v-1.604C38.988,21.068,38.778,20.993,38.55,20.993"/><path id="Fill-22" fill="#4BCE53" d="M24.166,37.131c0-0.555-0.452-1.005-1.01-1.005s-1.01,0.45-1.01,1.005s0.452,1.004,1.01,1.004S24.166,37.686,24.166,37.131"/><path id="Fill-23" fill="#4BCE53" d="M39.157,18.303l-5.801,0.928l1.762,0.229h0.094c-0.148,0.175-0.238,0.4-0.238,0.646c0,0.555,0.453,1.005,1.011,1.005c0.558,0,1.01-0.45,1.01-1.005c0-0.246-0.089-0.471-0.238-0.646h2.4V18.303z"/><path id="Fill-24" fill="#4BCE53" d="M38.55,24.776c-0.558,0-1.01,0.45-1.01,1.005s0.452,1.004,1.01,1.004c0.228,0,0.438-0.075,0.607-0.202c0-0.289,0-0.593,0-0.913v-0.691C38.988,24.852,38.778,24.776,38.55,24.776"/><path id="Fill-25" fill="#4BCE53" d="M37.328,3.431c-0.503-0.662-1.105-1.246-1.784-1.731L29.126,10L37.328,3.431z"/><path id="Fill-26" fill="#4BCE53" d="M38.55,32.343c-0.558,0-1.01,0.45-1.01,1.005c0,0.396,0.231,0.739,0.567,0.902c0.149-0.293,0.283-0.595,0.397-0.906c0.114-0.338,0.208-0.654,0.286-0.972C38.713,32.354,38.633,32.343,38.55,32.343"/><path id="Fill-27" fill="#4BCE53" d="M19.585,38.919h2.01c-0.052-0.507-0.482-0.901-1.005-0.901S19.637,38.412,19.585,38.919"/><path id="Fill-28" fill="#4BCE53" d="M30.853,34.234c-0.558,0-1.01,0.449-1.01,1.004s0.453,1.005,1.01,1.005c0.558,0,1.011-0.45,1.011-1.005S31.411,34.234,30.853,34.234"/><path id="Fill-29" fill="#4BCE53" d="M39.157,11.909l-6.645,3.28l6.646-1.511v-0.429C39.157,12.767,39.157,12.322,39.157,11.909"/><polygon id="Fill-30" fill="#4BCE53" points="39.157,16.729 39.157,15.248 33.086,17.18 "/><path id="Fill-31" fill="#4BCE53" d="M30.853,30.451c-0.558,0-1.01,0.449-1.01,1.004s0.453,1.005,1.01,1.005c0.558,0,1.011-0.45,1.011-1.005S31.411,30.451,30.853,30.451"/><path id="Fill-32" fill="#4BCE53" d="M35.984,22.885c-0.558,0-1.011,0.449-1.011,1.004s0.453,1.005,1.011,1.005c0.558,0,1.01-0.45,1.01-1.005S36.542,22.885,35.984,22.885"/><path id="Fill-33" fill="#4BCE53" d="M35.984,26.668c-0.558,0-1.011,0.449-1.011,1.004s0.453,1.005,1.011,1.005c0.558,0,1.01-0.45,1.01-1.005S36.542,26.668,35.984,26.668"/><path id="Fill-34" fill="#4BCE53" d="M35.984,30.451c-0.558,0-1.011,0.449-1.011,1.004s0.453,1.005,1.011,1.005c0.558,0,1.01-0.45,1.01-1.005S36.542,30.451,35.984,30.451"/><path id="Fill-35" fill="#4BCE53" d="M5.949,38.379l4.906-7.848l-7.001,6.853c0.543,0.36,1.131,0.659,1.755,0.886C5.725,38.309,5.837,38.345,5.949,38.379"/><path id="Fill-36" fill="#4BCE53" d="M0,26.432l6.219-2.678L0,24.832v1.071C0,26.085,0,26.261,0,26.432"/><path id="Fill-37" fill="#4BCE53" d="M36.995,35.238c0-0.555-0.453-1.004-1.01-1.004c-0.558,0-1.011,0.449-1.011,1.004s0.453,1.005,1.011,1.005C36.542,36.243,36.995,35.793,36.995,35.238"/><polygon id="Fill-38" fill="#4BCE53" points="17.84,1.746 19.579,3.474 19.579,4.329 19.745,6.008 20.575,0 19.626,0 19.597,0 19.579,0 19.579,0.018 "/><path id="Fill-39" fill="#4BCE53" d="M1.376,34.827c0.411,0.666,0.915,1.269,1.493,1.792l6.459-7.508L1.376,34.827z"/><path id="Fill-40" fill="#4BCE53" d="M12.471,0l-1.756,1.746l1.782,1.771l1.781-1.771L12.521,0C12.504,0,12.488,0,12.471,0"/><polygon id="Fill-41" fill="#4BCE53" points="7.151,5.287 8.933,7.058 10.714,5.287 8.933,3.517 "/><polygon id="Fill-42" fill="#4BCE53" points="16.034,0 14.277,1.746 16.059,3.517 17.84,1.746 16.084,0 "/><path id="Fill-43" fill="#4BCE53" d="M0.192,31.484c0.097,0.643,0.242,1.213,0.461,1.859c0.042,0.117,0.089,0.231,0.136,0.346l7.238-6.206L0.192,31.484z"/><polygon id="Fill-44" fill="#4BCE53" points="14.423,38.919 15.839,38.919 16.434,33.255 "/><polygon id="Fill-45" fill="#4BCE53" points="17.463,38.919 18.733,38.919 18.733,32.306 "/><path id="Fill-46" fill="#4BCE53" d="M14.448,32.627l-3.375,6.287c0.516,0.004,1.088,0.005,1.731,0.005L14.448,32.627z"/><path id="Fill-47" fill="#4BCE53" d="M12.574,31.711l-5.253,6.992c0.619,0.102,1.293,0.155,2.161,0.184L12.574,31.711z"/><path id="Fill-48" fill="#4BCE53" d="M0.053,30.004l6.931-4.32L0.005,28.01C0.011,28.791,0.025,29.439,0.053,30.004"/><polygon id="Fill-49" fill="#4BCE53" points="0,21.865 0,23.242 5.75,21.735 "/><polygon id="Fill-50" fill="#4BCE53" points="5.37,10.599 7.151,8.828 5.37,7.058 3.588,8.828 "/><polygon id="Fill-51" fill="#4BCE53" points="12.496,7.058 14.277,5.287 12.496,3.517 10.714,5.287 "/><polygon id="Fill-52" fill="#4BCE53" points="0.058,19.459 0,19.459 0,20.272 5.587,19.674 3.895,19.459 3.557,19.459 3.588,19.452 1.807,17.682 0.025,19.452 "/><polygon id="Fill-53" fill="#4BCE53" points="23.663,0 22.138,0 21.813,6.229 "/><path id="Fill-54" fill="#4BCE53" d="M10.714,1.746L9.009,0.051C8.955,0.054,8.901,0.057,8.848,0.06L7.151,1.746l1.782,1.771L10.714,1.746z"/><polygon id="Fill-55" fill="#4BCE53" points="1.807,17.682 3.588,15.911 1.807,14.14 0.025,15.911 "/><path id="Fill-56" fill="#4BCE53" d="M27.012,0c-0.369,0-0.762,0-1.185,0h-0.606l-1.392,6.754L27.012,0z"/><path id="Fill-57" fill="#4BCE53" d="M5.941,0.542C5.832,0.576,5.722,0.611,5.609,0.649C4.92,0.899,4.274,1.238,3.685,1.65L3.588,1.746L5.37,3.517l1.781-1.771L5.941,0.542z"/><polygon id="Fill-58" fill="#4BCE53" points="3.588,5.287 5.37,7.058 7.151,5.287 5.37,3.517 "/><path id="Fill-59" fill="#4BCE53" d="M0.06,8.794C0.059,8.815,0.058,8.837,0.056,8.859l1.751,1.74l1.781-1.771L1.807,7.058L0.06,8.794z"/><path id="Fill-60" fill="#4BCE53" d="M1.807,3.517L1.66,3.662C1.246,4.248,0.905,4.89,0.653,5.575C0.624,5.66,0.597,5.745,0.57,5.828l1.237,1.229l1.781-1.771L1.807,3.517z"/><polygon id="Fill-61" fill="#4BCE53" points="1.807,14.14 3.588,12.37 1.807,10.599 0.025,12.37 "/><path id="Fill-62" fill="#FFFFFF" d="M31.636,7.715c2.715,1.528,4.045,3.867,3.992,7.018c-0.054,3.151-0.054,6.302,0,9.452c0.053,3.151-1.277,5.49-3.992,7.018c-2.715,1.529-5.403,3.104-8.065,4.727c-2.661,1.623-5.323,1.623-7.984,0c-2.661-1.622-5.35-3.197-8.065-4.727c-2.715-1.527-4.045-3.866-3.992-7.018c0.053-3.15,0.053-6.301,0-9.452c-0.054-3.15,1.277-5.49,3.992-7.018c2.716-1.529,5.404-3.104,8.065-4.727c2.662-1.623,5.323-1.623,7.984,0C26.232,4.612,28.921,6.187,31.636,7.715"/><path id="Fill-63" fill="#292E3D" d="M29.251,25.783v-6.81c0-0.302-0.236-0.537-0.506-0.537h-8.101c-0.304,0-0.54,0.269-0.54,0.537v2.583c0.034,0.268,0.27,0.503,0.574,0.503h3.544c0.304,0,0.54,0.234,0.54,0.536v1.309c0,0.369-0.068,0.638-0.271,0.805c-1.147,1.074-2.633,1.577-4.32,1.577c-3.78,0-6.582-3.086-6.582-6.844c0-3.824,2.7-6.81,6.582-6.81c1.654,0,3.409,0.805,4.793,2.013c0.203,0.201,0.506,0.167,0.709,0l2.903-2.986c0.236-0.234,0.236-0.57,0-0.771c-2.396-2.248-5.232-3.421-8.405-3.421c-6.515,0-11.949,5.401-11.949,11.976s5.401,12.011,11.915,12.011C24.627,31.453,29.251,28.5,29.251,25.783"/></g></g></g></g></g></g></g></svg>