<?xml version="1.0" encoding="utf-8"?>
<!-- Generated by IcoMoon.io -->
<!DOCTYPE svg PUBLIC "-//W3C//DTD SVG 1.1//EN" "http://www.w3.org/Graphics/SVG/1.1/DTD/svg11.dtd">
<svg version="1.1" xmlns="http://www.w3.org/2000/svg" xmlns:xlink="http://www.w3.org/1999/xlink" width="752" height="32" viewBox="0 0 752 32">
<svg id="control-c-arrow" width="32" height="32" viewBox="0 0 32 32" x="0" y="0">
<path fill="#b1b6b7" d="M30.426 16c0 7.967-6.459 14.426-14.426 14.426s-14.426-6.459-14.426-14.426c0-7.967 6.459-14.426 14.426-14.426s14.426 6.459 14.426 14.426z"></path>
<path fill="#edeeef" d="M16 31.213c-8.388 0-15.213-6.825-15.213-15.213s6.825-15.213 15.213-15.213c8.389 0 15.213 6.825 15.213 15.213s-6.825 15.213-15.213 15.213v0zM16 2.361c-7.521 0-13.639 6.119-13.639 13.639s6.119 13.639 13.639 13.639 13.639-6.119 13.639-13.639-6.119-13.639-13.639-13.639v0z"></path>
<path fill="#fff" d="M18.037 16.317l0.358-0.358-2.437-2.437-0.717 0.717 1.721 1.721-1.721 1.721 0.717 0.717 2.079-2.079z"></path>
</svg>
<svg id="control-c-arrow-on" width="32" height="32" viewBox="0 0 32 32" x="48" y="0">
<path fill="#5ac546" d="M30.426 16c0 7.967-6.459 14.426-14.426 14.426s-14.426-6.459-14.426-14.426c0-7.967 6.459-14.426 14.426-14.426s14.426 6.459 14.426 14.426z"></path>
<path fill="#edeeef" d="M16 31.213c-8.388 0-15.213-6.825-15.213-15.213s6.825-15.213 15.213-15.213c8.389 0 15.213 6.825 15.213 15.213s-6.825 15.213-15.213 15.213v0zM16 2.361c-7.521 0-13.639 6.119-13.639 13.639s6.119 13.639 13.639 13.639 13.639-6.119 13.639-13.639-6.119-13.639-13.639-13.639v0z"></path>
<path fill="#fff" d="M18.037 16.317l0.358-0.358-2.437-2.437-0.717 0.717 1.721 1.721-1.721 1.721 0.717 0.717 2.079-2.079z"></path>
</svg>
<svg id="control-c-button" width="32" height="32" viewBox="0 0 32 32" x="96" y="0">
<path fill="#b1b6b7" d="M30.426 16c0 7.967-6.459 14.426-14.426 14.426s-14.426-6.459-14.426-14.426c0-7.967 6.459-14.426 14.426-14.426s14.426 6.459 14.426 14.426z"></path>
<path fill="#edeeef" d="M16 31.213c-8.388 0-15.213-6.825-15.213-15.213s6.825-15.213 15.213-15.213c8.389 0 15.213 6.825 15.213 15.213s-6.825 15.213-15.213 15.213v0zM16 2.361c-7.521 0-13.639 6.119-13.639 13.639s6.119 13.639 13.639 13.639 13.639-6.119 13.639-13.639-6.119-13.639-13.639-13.639v0z"></path>
</svg>
<svg id="control-c-button-on" width="32" height="32" viewBox="0 0 32 32" x="144" y="0">
<path fill="#5ac546" d="M30.426 16c0 7.967-6.459 14.426-14.426 14.426s-14.426-6.459-14.426-14.426c0-7.967 6.459-14.426 14.426-14.426s14.426 6.459 14.426 14.426z"></path>
<path fill="#edeeef" d="M16 31.213c-8.388 0-15.213-6.825-15.213-15.213s6.825-15.213 15.213-15.213c8.389 0 15.213 6.825 15.213 15.213s-6.825 15.213-15.213 15.213v0zM16 2.361c-7.521 0-13.639 6.119-13.639 13.639s6.119 13.639 13.639 13.639 13.639-6.119 13.639-13.639-6.119-13.639-13.639-13.639v0z"></path>
</svg>
<svg id="control-c-play" width="32" height="32" viewBox="0 0 32 32" x="192" y="0">
<path fill="#5ac546" d="M32 16c0 8.837-7.163 16-16 16s-16-7.163-16-16c0-8.837 7.163-16 16-16s16 7.163 16 16z"></path>
<path fill="#fff" d="M12.822 22.495c-0.182 0-0.364-0.046-0.528-0.139-0.336-0.189-0.544-0.543-0.544-0.927v-10.865c0-0.383 0.208-0.738 0.544-0.927s0.748-0.184 1.079 0.014l9.111 5.432c0.323 0.193 0.521 0.539 0.521 0.913s-0.198 0.721-0.52 0.913l-9.111 5.433c-0.169 0.101-0.361 0.152-0.552 0.152v0z"></path>
</svg>
<svg id="control-c-restart" width="32" height="32" viewBox="0 0 32 32" x="240" y="0">
<path fill="#5ac546" d="M16 0c-8.836 0-16 7.164-16 16s7.164 16 16 16 16-7.164 16-16-7.164-16-16-16zM22.102 15.356h-5.469l2.5-2.485c-0.86-0.854-1.953-1.398-3.282-1.398-2.579 0-4.688 2.097-4.688 4.66s2.11 4.66 4.688 4.66c2.032 0 3.75-1.32 4.376-3.106h1.641c-0.703 2.641-3.126 4.66-6.017 4.66-3.438-0-6.251-2.796-6.251-6.213s2.813-6.213 6.251-6.213c1.719 0 3.282 0.699 4.376 1.864l1.875-1.864v5.436z"></path>
<path fill="#fff" d="M15.851 9.92c-3.438 0-6.251 2.796-6.251 6.213s2.813 6.213 6.251 6.213c2.891 0 5.313-2.019 6.017-4.66h-1.641c-0.625 1.786-2.344 3.106-4.376 3.106-2.579 0-4.688-2.097-4.688-4.66s2.11-4.66 4.688-4.66c1.328 0 2.422 0.544 3.282 1.398l-2.5 2.485h5.47v-5.436l-1.875 1.864c-1.094-1.165-2.657-1.864-4.376-1.864z"></path>
</svg>
<svg id="control-c-restart-active" width="32" height="32" viewBox="0 0 32 32" x="288" y="0">
<path fill="#49a336" d="M16 0c-8.836 0-16 7.164-16 16s7.164 16 16 16 16-7.164 16-16-7.164-16-16-16zM22.102 15.356h-5.469l2.5-2.485c-0.86-0.854-1.953-1.398-3.282-1.398-2.579 0-4.688 2.097-4.688 4.66s2.11 4.66 4.688 4.66c2.032 0 3.75-1.32 4.376-3.106h1.641c-0.703 2.641-3.126 4.66-6.017 4.66-3.438-0-6.251-2.796-6.251-6.213s2.813-6.213 6.251-6.213c1.719 0 3.282 0.699 4.376 1.864l1.875-1.864v5.436z"></path>
<path fill="#fff" d="M15.851 9.92c-3.438 0-6.251 2.796-6.251 6.213s2.813 6.213 6.251 6.213c2.891 0 5.313-2.019 6.017-4.66h-1.641c-0.625 1.786-2.344 3.106-4.376 3.106-2.579 0-4.688-2.097-4.688-4.66s2.11-4.66 4.688-4.66c1.328 0 2.422 0.544 3.282 1.398l-2.5 2.485h5.47v-5.436l-1.875 1.864c-1.094-1.165-2.657-1.864-4.376-1.864z"></path>
</svg>
</svg>
