<?xml version="1.0" encoding="UTF-8" standalone="no"?><svg width="40px" height="40px" viewBox="0 0 40 40" version="1.1" xmlns="http://www.w3.org/2000/svg" xmlns:xlink="http://www.w3.org/1999/xlink">        <title>E0DED226-A16D-4777-A2E6-AA2E64109ABA</title>    <desc>Created with sketchtool.</desc>    <defs>        <circle id="path-1" cx="17.82" cy="17.82" r="17.82"></circle>        <mask id="mask-2" maskContentUnits="userSpaceOnUse" maskUnits="objectBoundingBox" x="-2" y="-2" width="39.64" height="39.64">            <rect x="-2" y="-2" width="39.64" height="39.64" fill="white"></rect>            <use xlink:href="#path-1" fill="black"></use>        </mask>    </defs>    <g id="Symbols" stroke="none" stroke-width="1" fill="none" fill-rule="evenodd">        <g id="Web-detail-hry---sidebar" transform="translate(-50.000000, -432.000000)">            <g id="Group-16" transform="translate(30.000000, 380.000000)">                <g id="Group-15" transform="translate(0.000000, 32.000000)">                    <g id="Group-10">                        <g id="game-cover-+-play-icon">                            <g id="related-playbtn" transform="translate(22.000000, 22.000000)">                                <g id="Oval-9">                                    <use fill-opacity="0.7" fill="#000000" fill-rule="evenodd" xlink:href="#path-1"></use>                                    <use stroke="#FFFFFF" mask="url(#mask-2)" stroke-width="4" xlink:href="#path-1"></use>                                </g>                                <path d="M14.1658179,24.7131353 C13.9676179,24.7131353 13.7696899,24.6628376 13.5913372,24.5625142 C13.2259316,24.3569736 13,23.9722645 13,23.5546582 L13,11.7387896 C13,11.321727 13.2259316,10.9364742 13.5913372,10.7306617 C13.9564709,10.5253929 14.4053434,10.5311024 14.7653114,10.7456151 L24.6736757,16.6532774 C25.0252155,16.8626244 25.24,17.2397208 25.24,17.6467239 C25.24,18.053727 25.0252155,18.4305515 24.6739476,18.6398985 L14.7655833,24.5478327 C14.5812492,24.6579438 14.3735335,24.7131353 14.1658179,24.7131353 L14.1658179,24.7131353 Z" id="Shape" fill="#FFFFFF"></path>                            </g>                        </g>                    </g>                </g>            </g>        </g>    </g></svg>